name analog
datacolumns 19
datarows 42
range 0.0 0.0205
endheader
time	ground_force_vx	ground_force_vy	ground_force_vz	ground_force_px	ground_force_py	ground_force_pz	l_ground_force_vx	l_ground_force_vy	l_ground_force_vz	l_ground_force_px	l_ground_force_py	l_ground_force_pz	ground_torque_x	ground_torque_y	ground_torque_z	l_ground_torque_x	l_ground_torque_y	l_ground_torque_z
0.0	-0.0	-0.0	-0.0	2.6986947059631348	40.09734725952149	-360.55181884765625	-2.6836538314819336	-51.80036926269531	-431.5941467285156	-0.0	-0.0	-0.0	-0.0	-0.0	-0.0	104400.2890625	17027.458984375	-8988.5400390625
0.0005	-0.0	-0.0	-0.0	2.7097742557525635	40.14210510253906	-362.4067687988281	-2.3284249305725098	-51.28181838989258	-431.2886352539063	-0.0	-0.0	-0.0	-0.0	-0.0	-0.0	104305.640625	16865.3359375	-8854.5654296875
0.001	-0.0	-0.0	-0.0	2.620595693588257	40.35386276245117	-360.1555480957031	-1.9738177061080933	-51.1492919921875	-430.8967590332031	-0.0	-0.0	-0.0	-0.0	-0.0	-0.0	104330.84375	16557.576171875	-8705.9599609375
0.0015	-0.0	-0.0	-0.0	2.95477294921875	40.67695236206055	-359.67193603515625	-1.7963403463363647	-50.69664764404297	-430.76605224609375	-0.0	-0.0	-0.0	-0.0	-0.0	-0.0	104322.125	16429.162109375	-8550.0
0.002	-0.0	-0.0	-0.0	2.832639217376709	40.24197006225586	-361.740478515625	-1.3973228931427002	-50.38726806640625	-429.5452880859375	-0.0	-0.0	-0.0	-0.0	-0.0	-0.0	104337.203125	16152.9423828125	-8545.890625
0.0025	-0.0	-0.0	-0.0	2.9439468383789062	39.95242691040039	-359.2756652832031	-1.5186645984649658	-50.12215805053711	-430.4591064453125	-0.0	-0.0	-0.0	-0.0	-0.0	-0.0	103886.4765625	16066.486328125	-8382.880859375
0.003	-0.0	-0.0	-0.0	3.1662986278533936	40.25334930419922	-360.8629760742188	-1.1981137990951538	-50.35375595092773	-428.3679504394531	-0.0	-0.0	-0.0	-0.0	-0.0	-0.0	103996.609375	16024.8662109375	-8378.900390625
0.0035	-0.0	-0.0	-0.0	2.553444623947144	39.718528747558594	-362.842529296875	-1.3859390020370483	-49.426856994628906	-426.53167724609375	-0.0	-0.0	-0.0	-0.0	-0.0	-0.0	103828.3828125	15876.47265625	-8175.02685546875
0.004	-0.0	-0.0	-0.0	2.9538779258728027	39.98588562011719	-364.1755676269531	-1.4746122360229492	-49.70343780517578	-425.2206115722656	-0.0	-0.0	-0.0	-0.0	-0.0	-0.0	103726.96875	15442.1064453125	-8234.525390625
0.0045000000000000005	-0.0	-0.0	-0.0	3.2213854789733887	39.89888000488281	-361.70361328125	-1.2202316522598269	-48.79864883422852	-423.69189453125	-0.0	-0.0	-0.0	-0.0	-0.0	-0.0	103147.71875	15520.4765625	-8252.603515625
0.005	-0.0	-0.0	-0.0	2.999396800994873	40.05328369140625	-363.1548767089844	-1.565394401550293	-49.05192565917969	-423.0781555175781	-0.0	-0.0	-0.0	-0.0	-0.0	-0.0	103021.984375	15523.1005859375	-8163.23291015625
0.0055	-0.0	-0.0	-0.0	3.054771423339844	39.97636413574219	-363.1172180175781	-1.3306617736816406	-48.467132568359375	-421.5108947753906	-0.0	-0.0	-0.0	-0.0	-0.0	-0.0	102492.640625	15216.435546875	-8089.08935546875
0.006	-0.0	-0.0	-0.0	2.8331856727600098	40.11794662475586	-361.7901916503906	-1.263457179069519	-48.16877746582031	-420.2092590332031	-0.0	-0.0	-0.0	-0.0	-0.0	-0.0	102386.2265625	15133.443359375	-8066.47216796875
0.006500000000000001	-0.0	-0.0	-0.0	2.787008285522461	40.117774963378906	-362.7518310546875	-1.3979341983795166	-48.26633071899414	-419.33111572265625	-0.0	-0.0	-0.0	-0.0	-0.0	-0.0	101901.84375	14965.4140625	-8107.4580078125
0.007	-0.0	-0.0	-0.0	3.0331573486328125	40.44381713867188	-362.1436767578125	-1.4957730770111084	-47.95867919921875	-415.839599609375	-0.0	-0.0	-0.0	-0.0	-0.0	-0.0	101454.4140625	14812.66796875	-8085.9814453125
0.0075	-0.0	-0.0	-0.0	2.854736328125	40.49911117553711	-362.5968017578125	-1.263239502906799	-47.98869705200195	-414.4918823242188	-0.0	-0.0	-0.0	-0.0	-0.0	-0.0	101313.9140625	14764.62890625	-8074.5888671875
0.008	-0.0	-0.0	-0.0	2.242954969406128	40.69865798950195	-362.2621154785156	-1.2544575929641724	-47.748443603515625	-413.44476318359375	-0.0	-0.0	-0.0	-0.0	-0.0	-0.0	100897.296875	14761.4228515625	-8056.1572265625
0.0085	-0.0	-0.0	-0.0	2.175057411193848	40.73259735107422	-364.38031005859375	-1.2207934856414795	-47.38255310058594	-410.6519775390625	-0.0	-0.0	-0.0	-0.0	-0.0	-0.0	100403.6953125	14671.376953125	-8092.8173828125
0.009000000000000001	-0.0	-0.0	-0.0	2.9732775688171387	40.78771209716797	-363.9425964355469	-1.254682540893555	-47.0964469909668	-410.6351623535156	-0.0	-0.0	-0.0	-0.0	-0.0	-0.0	100051.625	14345.2900390625	-7933.1533203125
0.0095	-0.0	-0.0	-0.0	2.1881256103515625	41.296485900878906	-365.3229370117188	-0.756343424320221	-46.743106842041016	-408.6082763671875	-0.0	-0.0	-0.0	-0.0	-0.0	-0.0	99712.921875	14242.19921875	-8017.4169921875
0.01	-0.0	-0.0	-0.0	2.621213436126709	41.41156005859375	-364.91796875	-0.709686279296875	-46.65471267700195	-406.8949890136719	-0.0	-0.0	-0.0	-0.0	-0.0	-0.0	99640.71875	13962.0087890625	-7939.65966796875
0.0105	-0.0	-0.0	-0.0	2.030924081802368	41.35650634765625	-366.0296020507813	-0.5792217254638672	-46.68840408325195	-406.3611755371094	-0.0	-0.0	-0.0	-0.0	-0.0	-0.0	99576.1015625	13960.6591796875	-7877.6015625
0.011	-0.0	-0.0	-0.0	2.6288280487060547	41.61635971069336	-366.548095703125	-0.3887880146503448	-45.89348220825195	-404.985595703125	-0.0	-0.0	-0.0	-0.0	-0.0	-0.0	99210.7734375	13563.6708984375	-7857.1650390625
0.0115	-0.0	-0.0	-0.0	2.799737930297852	41.88393783569336	-368.4198303222656	-0.4850460290908813	-45.55333709716797	-403.8642578125	-0.0	-0.0	-0.0	-0.0	-0.0	-0.0	99008.5625	13441.767578125	-7827.43212890625
0.012	-0.0	-0.0	-0.0	2.559222221374512	42.28203201293945	-371.03131103515625	-0.5189159512519836	-45.465087890625	-403.0785827636719	-0.0	-0.0	-0.0	-0.0	-0.0	-0.0	98748.9375	13220.611328125	-7991.5439453125
0.0125	-0.0	-0.0	-0.0	2.6486291885375977	42.08316421508789	-371.192138671875	-0.2661323547363281	-45.13238525390625	-402.4378051757813	-0.0	-0.0	-0.0	-0.0	-0.0	-0.0	98704.7734375	13270.271484375	-7847.451171875
0.013000000000000001	-0.0	-0.0	-0.0	2.696894645690918	42.00781631469727	-374.017578125	-0.4911841452121734	-44.85393142700195	-400.98773193359375	-0.0	-0.0	-0.0	-0.0	-0.0	-0.0	98607.0390625	13239.3779296875	-7925.17236328125
0.0135	-0.0	-0.0	-0.0	2.820383071899414	41.86415863037109	-374.5594177246094	-0.5322647094726562	-44.174442291259766	-399.9934692382813	-0.0	-0.0	-0.0	-0.0	-0.0	-0.0	98502.7890625	13022.1962890625	-7865.72607421875
0.014	-0.0	-0.0	-0.0	2.690253973007202	42.15868377685547	-374.9409790039063	-0.8050571084022522	-43.81461334228516	-400.2883911132813	-0.0	-0.0	-0.0	-0.0	-0.0	-0.0	98269.9140625	12962.3779296875	-7902.3359375
0.0145	-0.0	-0.0	-0.0	2.621520519256592	41.87093353271485	-377.60491943359375	-0.7642122507095337	-43.57662963867188	-399.3494262695313	-0.0	-0.0	-0.0	-0.0	-0.0	-0.0	98205.3046875	12857.0673828125	-7966.20361328125
0.015	-0.0	-0.0	-0.0	3.0534608364105225	42.16482925415039	-378.6332702636719	-0.9555524587631226	-42.7956657409668	-399.2947692871094	-0.0	-0.0	-0.0	-0.0	-0.0	-0.0	98232.859375	12860.638671875	-8002.61962890625
0.0155	-0.0	-0.0	-0.0	3.096174478530884	42.18718338012695	-379.5883483886719	-1.125102996826172	-42.47663879394531	-398.3025207519531	-0.0	-0.0	-0.0	-0.0	-0.0	-0.0	98265.4140625	12752.1923828125	-8103.12060546875
0.016	-0.0	-0.0	-0.0	3.588592529296875	42.40592193603516	-380.2718811035156	-1.2963740825653076	-42.462684631347656	-399.080322265625	-0.0	-0.0	-0.0	-0.0	-0.0	-0.0	98437.703125	12876.4638671875	-8000.79931640625
0.0165	-0.0	-0.0	-0.0	3.706648111343384	42.1988410949707	-382.2425842285156	-1.41937255859375	-42.38021087646485	-398.0889892578125	-0.0	-0.0	-0.0	-0.0	-0.0	-0.0	98259.8828125	12525.8583984375	-8091.87109375
0.017	-0.0	-0.0	-0.0	4.019920825958252	42.47520065307617	-383.5173034667969	-1.685504913330078	-42.0212287902832	-398.8098449707031	-0.0	-0.0	-0.0	-0.0	-0.0	-0.0	98479.0078125	12663.431640625	-8116.83837890625
0.0175	-0.0	-0.0	-0.0	3.796121597290039	42.67351531982422	-384.3968505859375	-1.2908025979995728	-42.134891510009766	-398.3035583496094	-0.0	-0.0	-0.0	-0.0	-0.0	-0.0	98444.4765625	12627.0283203125	-8027.57666015625
0.018000000000000002	-0.0	-0.0	-0.0	4.51507568359375	42.94098663330078	-385.4183349609375	-1.4339460134506226	-42.33111572265625	-397.6629333496094	-0.0	-0.0	-0.0	-0.0	-0.0	-0.0	98245.9375	12399.3798828125	-8098.54296875
0.0185	-0.0	-0.0	-0.0	4.604248523712158	42.5796127319336	-386.0845947265625	-1.8629264831542969	-42.05574798583984	-397.7414855957031	-0.0	-0.0	-0.0	-0.0	-0.0	-0.0	98160.8515625	12621.38671875	-8003.15869140625
0.019	-0.0	-0.0	-0.0	4.6934309005737305	43.19355392456055	-388.3414916992188	-1.439096212387085	-42.02148818969727	-396.48095703125	-0.0	-0.0	-0.0	-0.0	-0.0	-0.0	98066.390625	12376.26171875	-8068.78173828125
0.0195	-0.0	-0.0	-0.0	4.360835075378418	43.5500373840332	-389.14459228515625	-1.9712859392166135	-42.006744384765625	-396.3456726074219	-0.0	-0.0	-0.0	-0.0	-0.0	-0.0	97984.8359375	12382.3515625	-8014.79248046875
0.02	-0.0	-0.0	-0.0	4.564930438995361	43.83257293701172	-387.8517456054688	-1.936642408370972	-42.12944793701172	-396.0920104980469	-0.0	-0.0	-0.0	-0.0	-0.0	-0.0	97712.8671875	12326.0302734375	-8075.68359375
0.0205	-0.0	-0.0	-0.0	4.58456563949585	43.86742401123047	-390.4621887207031	-1.8629264831542969	-42.316680908203125	-395.7074890136719	-0.0	-0.0	-0.0	-0.0	-0.0	-0.0	97620.046875	12420.755859375	-8121.92529296875
